M48
; DRILL file {KiCad 8.0.8} date 2025-02-17T18:47:24+0100
; FORMAT={-:-/ absolute / inch / decimal}
; #@! TF.CreationDate,2025-02-17T18:47:24+01:00
; #@! TF.GenerationSoftware,Kicad,Pcbnew,8.0.8
; #@! TF.FileFunction,Plated,1,2,PTH
FMAT,2
INCH
; #@! TA.AperFunction,Plated,PTH,ViaDrill
T1C0.0118
; #@! TA.AperFunction,Plated,PTH,ViaDrill
T2C0.0236
; #@! TA.AperFunction,Plated,PTH,ComponentDrill
T3C0.0315
; #@! TA.AperFunction,Plated,PTH,ComponentDrill
T4C0.0354
; #@! TA.AperFunction,Plated,PTH,ComponentDrill
T5C0.0394
; #@! TA.AperFunction,Plated,PTH,ComponentDrill
T6C0.0433
; #@! TA.AperFunction,Plated,PTH,ComponentDrill
T7C0.1378
%
G90
G05
T1
X4.6Y-2.535
X4.605Y-2.88
X4.83Y-2.99
X4.845Y-1.935
X4.865Y-3.11
X4.88Y-2.045
X4.91Y-3.175
X4.94Y-2.145
X5.12Y-2.635
X5.13Y-2.55
X5.135Y-2.34
X5.14Y-2.21
X5.145Y-1.775
X5.16Y-2.83
X5.1872Y-2.06
X5.19Y-2.77
X5.3Y-2.525
X5.305Y-2.62
X5.355Y-2.455
X5.38Y-2.955
X5.705Y-1.69
X5.705Y-2.905
X5.9Y-1.755
X5.965Y-2.14
X5.97Y-1.855
X6.0Y-1.955
X6.0Y-2.415
X6.0014Y-2.485
X6.02Y-2.8
X6.0236Y-2.055
X6.025Y-2.7
X6.0472Y-2.155
X6.05Y-2.975
X6.075Y-2.255
X6.075Y-3.25
X6.0986Y-2.35
X6.1Y-3.525
T2
X4.095Y-4.275
X4.2Y-3.74
X4.25Y-3.9
X4.3Y-2.255
X4.305Y-3.595
X4.635Y-3.245
X4.935Y-3.945
X4.9876Y-3.2453
X5.25Y-3.94
X5.895Y-4.225
X5.9Y-3.865
X6.295Y-3.87
X6.3Y-3.49
X6.36Y-3.62
X6.361Y-3.4441
X6.4122Y-3.5976
X6.475Y-3.5464
X6.875Y-3.4953
X6.94Y-3.445
X6.98Y-3.5464
X7.035Y-3.5976
X7.09Y-3.545
X7.505Y-3.6
T3
X3.8473Y-2.24
X3.9457Y-2.24
X4.45Y-1.5369
X4.45Y-1.6369
X4.45Y-1.7369
X4.45Y-1.8369
X4.45Y-1.9369
X4.45Y-2.0369
X4.45Y-2.1369
X4.45Y-2.2369
X4.45Y-2.3369
X4.45Y-2.4369
X4.45Y-2.5369
X4.45Y-2.6369
X4.45Y-2.7369
X4.45Y-2.8369
X4.45Y-2.9369
X4.45Y-3.0369
X4.45Y-3.1369
X4.45Y-3.2369
X4.45Y-3.3369
X4.45Y-3.4369
X5.05Y-1.5369
X5.05Y-1.6369
X5.05Y-1.7369
X5.05Y-1.8369
X5.05Y-1.9369
X5.05Y-2.0369
X5.05Y-2.1369
X5.05Y-2.2369
X5.05Y-2.3369
X5.05Y-2.4369
X5.05Y-2.5369
X5.05Y-2.6369
X5.05Y-2.7369
X5.05Y-2.8369
X5.05Y-2.9369
X5.05Y-3.0369
X5.05Y-3.1369
X5.05Y-3.2369
X5.05Y-3.3369
X5.05Y-3.4369
X5.25Y-1.6
X5.25Y-1.875
X5.25Y-2.15
X5.25Y-2.425
X5.25Y-2.7
X5.25Y-2.975
X5.25Y-3.25
X5.25Y-3.525
X5.65Y-1.6
X5.65Y-1.875
X5.65Y-2.15
X5.65Y-2.425
X5.65Y-2.7
X5.65Y-2.975
X5.65Y-3.25
X5.65Y-3.525
X5.9016Y-4.05
X6.0Y-4.05
X6.3766Y-4.05
X6.475Y-4.05
X6.8766Y-4.05
X6.975Y-4.05
X7.35Y-4.05
X7.4484Y-4.05
T4
X5.7998Y-1.875
X5.7998Y-2.425
X5.7998Y-2.975
X5.7998Y-3.25
X5.7998Y-3.525
X5.8Y-1.6
X5.8Y-2.15
X5.8Y-2.7
X5.8998Y-1.875
X5.8998Y-2.425
X5.8998Y-2.975
X5.8998Y-3.25
X5.8998Y-3.525
X5.9Y-1.6
X5.9Y-2.15
X5.9Y-2.7
T5
X3.8031Y-2.75
X4.0Y-2.75
X6.2Y-1.7
X6.2Y-1.8
X6.2Y-1.9
X6.2Y-2.0
X6.2Y-2.1
X6.2Y-2.2
X6.2Y-2.3
X6.2Y-2.4
X6.2Y-2.5
X6.2Y-2.6
X6.2Y-2.7
X6.2Y-2.8
X6.2Y-2.9
X6.2Y-3.0
X6.2Y-3.1
X6.2Y-3.2
X6.2Y-3.3
X6.3Y-1.7
X6.3Y-1.8
X6.3Y-1.9
X6.3Y-2.0
X6.3Y-2.1
X6.3Y-2.2
X6.3Y-2.3
X6.3Y-2.4
X6.3Y-2.5
X6.3Y-2.6
X6.3Y-2.7
X6.3Y-2.8
X6.3Y-2.9
X6.3Y-3.0
X6.3Y-3.1
X6.3Y-3.2
X6.3Y-3.3
X6.782Y-1.7
X6.782Y-1.8
X6.782Y-1.9
X6.782Y-2.0
X6.782Y-2.1
X6.782Y-2.2
X6.782Y-2.3
X6.782Y-2.4
X6.782Y-2.5
X6.782Y-2.6
X6.782Y-2.7
X6.782Y-2.8
X6.782Y-2.9
X6.782Y-3.0
X6.782Y-3.1
X6.782Y-3.2
X6.782Y-3.3
X6.882Y-1.7
X6.882Y-1.8
X6.882Y-1.9
X6.882Y-2.0
X6.882Y-2.1
X6.882Y-2.2
X6.882Y-2.3
X6.882Y-2.4
X6.882Y-2.5
X6.882Y-2.6
X6.882Y-2.7
X6.882Y-2.8
X6.882Y-2.9
X6.882Y-3.0
X6.882Y-3.1
X6.882Y-3.2
X6.882Y-3.3
X7.3Y-1.7
X7.3Y-1.8
X7.3Y-1.9
X7.3Y-2.0
X7.3Y-2.1
X7.3Y-2.2
X7.3Y-2.3
X7.3Y-2.4
X7.3Y-2.5
X7.3Y-2.6
X7.3Y-2.7
X7.3Y-2.8
X7.3Y-2.9
X7.3Y-3.0
X7.3Y-3.1
X7.3Y-3.2
X7.3Y-3.3
X7.4Y-1.7
X7.4Y-1.8
X7.4Y-1.9
X7.4Y-2.0
X7.4Y-2.1
X7.4Y-2.2
X7.4Y-2.3
X7.4Y-2.4
X7.4Y-2.5
X7.4Y-2.6
X7.4Y-2.7
X7.4Y-2.8
X7.4Y-2.9
X7.4Y-3.0
X7.4Y-3.1
X7.4Y-3.2
X7.4Y-3.3
X7.8Y-1.7
X7.8Y-1.8
X7.8Y-1.9
X7.8Y-2.0
X7.8Y-2.1
X7.8Y-2.2
X7.8Y-2.3
X7.8Y-2.4
X7.8Y-2.5
X7.8Y-2.6
X7.8Y-2.7
X7.8Y-2.8
X7.8Y-2.9
X7.8Y-3.0
X7.8Y-3.1
X7.8Y-3.2
X7.8Y-3.3
X7.9Y-1.7
X7.9Y-1.8
X7.9Y-1.9
X7.9Y-2.0
X7.9Y-2.1
X7.9Y-2.2
X7.9Y-2.3
X7.9Y-2.4
X7.9Y-2.5
X7.9Y-2.6
X7.9Y-2.7
X7.9Y-2.8
X7.9Y-2.9
X7.9Y-3.0
X7.9Y-3.1
X7.9Y-3.2
X7.9Y-3.3
T6
X3.74Y-3.14
X3.825Y-1.88
X3.925Y-1.88
X4.025Y-1.88
X4.14Y-3.14
X4.65Y-3.675
X4.85Y-4.2172
X4.95Y-4.2172
X5.05Y-3.675
X5.05Y-4.2172
X6.075Y-3.725
X6.475Y-3.725
X6.8Y-3.725
X6.9Y-3.725
X7.0Y-3.725
X7.3Y-3.725
X7.4Y-3.725
X7.5Y-3.725
T7
X4.45Y-4.05
X5.45Y-4.05
T5
G00X3.9198Y-3.407
M15
G01X3.9198Y-3.4857
M16
G05
G00X3.9986Y-3.6314
M15
G01X4.0773Y-3.6314
M16
G05
G00X4.1639Y-3.3972
M15
G01X4.1639Y-3.4956
M16
G05
M30
